<svg width="1259" height="2647" viewBox="0 0 1259 2647" fill="none" xmlns="http://www.w3.org/2000/svg">
<path d="M164.587 16.0009C164.587 16.0009 152.587 163.001 227.587 210.001C302.587 257.001 401.446 146.714 494.587 194.001C602.36 248.716 533.587 471.501 636.587 469.001C739.587 466.501 658.298 632.58 586.587 670.001C498.106 716.173 428.127 598.475 390.587 506.001C312.316 313.189 724.161 329.236 915.087 412.001C1072.54 480.255 1229.34 583.551 1194.09 751.501C1157.17 927.4 928.85 846.985 771.587 934.001C549.24 1057.03 189.671 1077.92 251.087 1324.5C274.374 1418 443.587 1324.5 390.587 1528C337.587 1731.5 646.266 1729.92 592.587 1878.5C525.74 2063.54 260.026 1958.9 89.0871 1861.5C-226.936 1681.43 564.055 1256.06 898.087 1400C1158.19 1512.08 1216.93 1756.81 1241.09 2039C1261.47 2277.06 1086.59 2631 1086.59 2631" stroke="black" stroke-width="32" stroke-linecap="round"/>
</svg>
